name C:\Users\u0101727\Documents\MyRepositories\upper-imu-dc\Results\main_tracking\Case_31\FLX01_angularVelocities_groundFrame.mot
datacolumns 4
datarows 105
range 3.51000000 4.55000000
endheader 
time	radius_imu_x	radius_imu_y	radius_imu_z	
          3.51000000	         -0.02268426	         -0.07396721	         -0.13205961	
          3.52000000	         -0.00326048	         -0.04185939	         -0.12427489	
          3.53000000	          0.01678688	         -0.00800649	         -0.11491103	
          3.54000000	          0.03572140	          0.02237245	         -0.10506542	
          3.55000000	          0.05188041	          0.04422885	         -0.09587282	
          3.56000000	          0.06393833	          0.05361588	         -0.08833164	
          3.57000000	          0.07110782	          0.04842393	         -0.08312875	
          3.58000000	          0.07323381	          0.02877016	         -0.08049777	
          3.59000000	          0.07077072	         -0.00300796	         -0.08015079	
          3.60000000	          0.06465725	         -0.04276805	         -0.08132546	
          3.61000000	          0.05612080	         -0.08534431	         -0.08296094	
          3.62000000	          0.04646131	         -0.12552071	         -0.08395900	
          3.63000000	          0.03686812	         -0.15891785	         -0.08344433	
          3.64000000	          0.02830250	         -0.18256261	         -0.08094687	
          3.65000000	          0.02145225	         -0.19504467	         -0.07646496	
          3.66000000	          0.01675066	         -0.19630156	         -0.07041118	
          3.67000000	          0.01443407	         -0.18717021	         -0.06347177	
          3.68000000	          0.01459992	         -0.16892247	         -0.05644684	
          3.69000000	          0.01724251	         -0.14294584	         -0.05013487	
          3.70000000	          0.02226577	         -0.11052687	         -0.04524795	
          3.71000000	          0.02948761	         -0.07273100	         -0.04235572	
          3.72000000	          0.03864465	         -0.03048007	         -0.04189525	
          3.73000000	          0.04939252	          0.01512875	         -0.04425965	
          3.74000000	          0.06129947	          0.06242788	         -0.04990330	
          3.75000000	          0.07384950	          0.10905297	         -0.05934357	
          3.76000000	          0.08648088	          0.15232000	         -0.07299374	
          3.77000000	          0.09865871	          0.18998687	         -0.09089475	
          3.78000000	          0.10993988	          0.22094522	         -0.11252601	
          3.79000000	          0.11998380	          0.24538355	         -0.13685933	
          3.80000000	          0.12850168	          0.26433688	         -0.16265477	
          3.81000000	          0.13518257	          0.27894252	         -0.18883391	
          3.82000000	          0.13965808	          0.28985208	         -0.21474431	
          3.83000000	          0.14156012	          0.29713741	         -0.24021272	
          3.84000000	          0.14067224	          0.30073583	         -0.26539581	
          3.85000000	          0.13709138	          0.30109513	         -0.29053986	
          3.86000000	          0.13128600	          0.29952772	         -0.31579155	
          3.87000000	          0.12400256	          0.29804747	         -0.34113076	
          3.88000000	          0.11606827	          0.29882967	         -0.36641003	
          3.89000000	          0.10817257	          0.30354484	         -0.39146542	
          3.90000000	          0.10068611	          0.31275778	         -0.41626461	
          3.91000000	          0.09356281	          0.32560106	         -0.44101832	
          3.92000000	          0.08637930	          0.33996320	         -0.46616197	
          3.93000000	          0.07853579	          0.35326072	         -0.49218681	
          3.94000000	          0.06955899	          0.36353358	         -0.51940710	
          3.95000000	          0.05938667	          0.37040679	         -0.54778232	
          3.96000000	          0.04853052	          0.37554412	         -0.57685896	
          3.97000000	          0.03806616	          0.38241838	         -0.60584853	
          3.98000000	          0.02944576	          0.39542350	         -0.63384166	
          3.99000000	          0.02418218	          0.41859548	         -0.66011393	
          4.00000000	          0.02349704	          0.45438191	         -0.68441670	
          4.01000000	          0.02802366	          0.50283520	         -0.70714580	
          4.02000000	          0.03762434	          0.56136907	         -0.72935060	
          4.03000000	          0.05134553	          0.62501750	         -0.75261122	
          4.04000000	          0.06750585	          0.68708960	         -0.77881086	
          4.05000000	          0.08391651	          0.74018614	         -0.80979615	
          4.06000000	          0.09824405	          0.77754087	         -0.84693636	
          4.07000000	          0.10847747	          0.79445135	         -0.89067947	
          4.08000000	          0.11338587	          0.78937748	         -0.94026222	
          4.09000000	          0.11283479	          0.76434507	         -0.99369692	
          4.10000000	          0.10787291	          0.72452698	         -1.04806309	
          4.11000000	          0.10054646	          0.67709874	         -1.10003421	
          4.12000000	          0.09346316	          0.62966947	         -1.14648909	
          4.13000000	          0.08926449	          0.58882541	         -1.18501241	
          4.14000000	          0.09028050	          0.55937878	         -1.21412579	
          4.15000000	          0.09855009	          0.54454275	         -1.23322251	
          4.16000000	          0.11611612	          0.54665990	         -1.24233012	
          4.17000000	          0.14526163	          0.56775759	         -1.24189278	
          4.18000000	          0.18835254	          0.60938362	         -1.23270046	
          4.19000000	          0.24724424	          0.67180011	         -1.21593920	
          4.20000000	          0.32253238	          0.75311506	         -1.19323413	
          4.21000000	          0.41294930	          0.84883148	         -1.16659682	
          4.22000000	          0.51497865	          0.95183616	         -1.13830027	
          4.23000000	          0.62260843	          1.05259902	         -1.11076537	
          4.24000000	          0.72728606	          1.13957624	         -1.08649551	
          4.25000000	          0.81847193	          1.20026572	         -1.06798370	
          4.26000000	          0.88523481	          1.22337054	         -1.05747047	
          4.27000000	          0.91867033	          1.20162510	         -1.05656048	
          4.28000000	          0.91398788	          1.13375839	         -1.06590701	
          4.29000000	          0.87117994	          1.02442808	         -1.08516233	
          4.30000000	          0.79455349	          0.88280534	         -1.11311711	
          4.31000000	          0.69238481	          0.72151399	         -1.14777762	
          4.32000000	          0.57720552	          0.55644668	         -1.18631331	
          4.33000000	          0.46562549	          0.40608579	         -1.22513443	
          4.34000000	          0.37613472	          0.28873038	         -1.26040318	
          4.35000000	          0.32478193	          0.21793006	         -1.28891821	
          4.36000000	          0.32049799	          0.19833141	         -1.30894156	
          4.37000000	          0.36229507	          0.22414534	         -1.32054518	
          4.38000000	          0.43965011	          0.28103929	         -1.32533098	
          4.39000000	          0.53611587	          0.35083070	         -1.32563155	
          4.40000000	          0.63514948	          0.41745903	         -1.32344922	
          4.41000000	          0.72615183	          0.47210465	         -1.31951935	
          4.42000000	          0.80783953	          0.51504731	         -1.31297917	
          4.43000000	          0.88667656	          0.55297344	         -1.30195311	
          4.44000000	          0.97091427	          0.59311541	         -1.28485050	
          4.45000000	          1.06362079	          0.63759267	         -1.26172008	
          4.46000000	          1.15843907	          0.68086605	         -1.23498803	
          4.47000000	          1.24011725	          0.71127804	         -1.20921246	
          4.48000000	          1.28974806	          0.71583847	         -1.18987599	
          4.49000000	          1.29258532	          0.68605930	         -1.18166163	
          4.50000000	          1.24455442	          0.62188459	         -1.18701481	
          4.51000000	          1.15396305	          0.53168305	         -1.20570365	
          4.52000000	          1.03813495	          0.42884419	         -1.23543708	
          4.53000000	          0.91763121	          0.32732893	         -1.27299114	
          4.54000000	          0.81081917	          0.23814618	         -1.31524134	
          4.55000000	          0.73037339	          0.16760868	         -1.35975427	
